<svg width="16" height="16" viewBox="0 0 16 16" fill="none" xmlns="http://www.w3.org/2000/svg">
<g id="Icons">
<path id="Shape" d="M12.2422 12.2426C12.5025 11.9822 12.5025 11.5601 12.2422 11.2997L8.94281 8.00037L12.2431 4.70009C12.5034 4.43974 12.5034 4.01763 12.2431 3.75728C11.9827 3.49693 11.5606 3.49693 11.3003 3.75728L8 7.05756L4.69972 3.75727C4.43937 3.49692 4.01726 3.49692 3.75691 3.75727C3.49656 4.01762 3.49656 4.43973 3.75691 4.70008L7.05719 8.00037L3.75781 11.2997C3.49746 11.5601 3.49746 11.9822 3.75781 12.2426C4.01816 12.5029 4.44027 12.5029 4.70062 12.2426L8 8.94318L11.2994 12.2426C11.5597 12.5029 11.9818 12.5029 12.2422 12.2426Z" fill="#191D23"/>
</g>
</svg>
